[IMG]http://i981.photobucket.com/albums/ae294/fasamoo/gogo.gif[/IMG]

[img]http://kulibina.freehosty.com/img/load.php?img=375538_3.jpg[/img]

[IMG]http://i981.photobucket.com/albums/ae294/fasamoo/plot.gif[/IMG]

Epic account of the thief Barabbas, who was spared crucifixion when Pilate manipulated the crowd into to pardoning him, rather than Jesus. Struggling with his spirituality, Barabbas goes through many ordeals leading him to the gladiatorial arena, where he tries to win his freedom and confront his inner demons, ultimately becoming a follower of the man who was crucified in his place.
 
[IMG]http://i981.photobucket.com/albums/ae294/fasamoo/screenshots.gif[/IMG]

[url=http://www.imgboot.com/image.php?u=fasamoo&i=barabbas1961dvdripgogo201005281.jpg][img]http://imgboot.com/images/fasamoo/barabbas1961dvdripgogo201005281.jpg[/img][/url]
[url=http://www.imgboot.com/image.php?u=fasamoo&i=barabbas1961dvdripgogo201005282.jpg][img]http://imgboot.com/images/fasamoo/barabbas1961dvdripgogo201005282.jpg[/img][/url]
[url=http://www.imgboot.com/image.php?u=fasamoo&i=barabbas1961dvdripgogo20100528225.jpg][img]http://imgboot.com/images/fasamoo/barabbas1961dvdripgogo20100528225.jpg[/img][/url]
[url=http://www.imgboot.com/image.php?u=fasamoo&i=barabbas1961dvdripgogo20100528230.jpg][img]http://imgboot.com/images/fasamoo/barabbas1961dvdripgogo20100528230.jpg[/img][/url]
[url=http://www.imgboot.com/image.php?u=fasamoo&i=barabbas1961dvdripgogo20100528231.jpg][img]http://imgboot.com/images/fasamoo/barabbas1961dvdripgogo20100528231.jpg[/img][/url]
[url=http://www.imgboot.com/image.php?u=fasamoo&i=barabbas1961dvdripgogo201005283.jpg][img]http://imgboot.com/images/fasamoo/barabbas1961dvdripgogo201005283.jpg[/img][/url]
[url=http://www.imgboot.com/image.php?u=fasamoo&i=barabbas1961dvdripgogo201005284.jpg][img]http://imgboot.com/images/fasamoo/barabbas1961dvdripgogo201005284.jpg[/img][/url]
[url=http://www.imgboot.com/image.php?u=fasamoo&i=barabbas1961dvdripgogo201005285.jpg][img]http://imgboot.com/images/fasamoo/barabbas1961dvdripgogo201005285.jpg[/img][/url]

[IMG]http://i981.photobucket.com/albums/ae294/fasamoo/info.gif[/IMG]

General
Complete name                    : Barabbas 1961 DVDRip GoGoBarabbas 1961 DVDRip GoGo.avi
IMDB Link                        : http://www.imdb.com/title/tt0055774/
Format                           : AVI
Format/Info                      : Audio Video Interleave
File size                        : 800 MiB
Duration                         : 2h 17mn
Overall bit rate                 : 813 Kbps
Writing application              : VirtualDubMod 1.5.4.1 (build 2178/release)
Writing library                  : VirtualDubMod build 2178/release

Video
ID                               : 0
Format                           : MPEG-4 Visual
Format profile                   : Advanced Simple@L5
Format settings, BVOP            : Yes
Format settings, QPel            : No
Format settings, GMC             : No warppoints
Format settings, Matrix          : Custom
Codec ID                         : XVID
Codec ID/Hint                    : XviD
Duration                         : 2h 17mn
Bit rate                         : 686 Kbps
Width                            : 576 pixels
Height                           : 224 pixels
Display aspect ratio             : 2.571
Frame rate                       : 23.976 fps
Resolution                       : 8 bits
Colorimetry                      : 4:2:0
Scan type                        : Progressive
Bits/(Pixel*Frame)               : 0.222
Stream size                      : 675 MiB (84%)
Writing library                  : XviD 1.2.1 (UTC 2008-12-04)

Audio
ID                               : 1
Format                           : MPEG Audio
Format version                   : Version 1
Format profile                   : Layer 3
Mode                             : Joint stereo
Format_Settings_ModeExtension    : MS Stereo
Codec ID                         : 55
Codec ID/Hint                    : MP3
Duration                         : 2h 17mn
Bit rate mode                    : Variable
Bit rate                         : 114 Kbps
Nominal bit rate                 : 128 Kbps
Channel(s)                       : 2 channels
Sampling rate                    : 48.0 KHz
Stream size                      : 112 MiB (14%)
Alignment                        : Aligned on interleaves
Interleave, duration             : 24 ms (0.58 video frame)
Interleave, preload duration     : 161 ms
Writing library                  : LAME3.98r
Encoding settings                : -m j -V 4 -q 2 -lowpass 17 --abr 128
Language                         : English
Subtitles                        : English,Francais,Espanol,Portugues.(.IDX+*.SUB)
                                 : English.(.srt)
Genre                            : Adventure | Biography | Drama

[IMG]http://i981.photobucket.com/albums/ae294/fasamoo/pleaseseed.gif[/IMG]